<?xml version="1.0" encoding="utf-8"?>
<!-- Generated by IcoMoon.io -->
<!DOCTYPE svg PUBLIC "-//W3C//DTD SVG 1.1//EN" "http://www.w3.org/Graphics/SVG/1.1/DTD/svg11.dtd">
<svg version="1.1" xmlns="http://www.w3.org/2000/svg" xmlns:xlink="http://www.w3.org/1999/xlink" width="14" height="18" viewBox="0 0 14 18">
<g>
</g>
  <path d="M13.038 13.279q0 0.402-0.281 0.683l-1.366 1.366q-0.281 0.281-0.683 0.281t-0.683-0.281l-2.953-2.953-2.953 2.953q-0.281 0.281-0.683 0.281t-0.683-0.281l-1.366-1.366q-0.281-0.281-0.281-0.683t0.281-0.683l2.953-2.953-2.953-2.953q-0.281-0.281-0.281-0.683t0.281-0.683l1.366-1.366q0.281-0.281 0.683-0.281t0.683 0.281l2.953 2.953 2.953-2.953q0.281-0.281 0.683-0.281t0.683 0.281l1.366 1.366q0.281 0.281 0.281 0.683t-0.281 0.683l-2.953 2.953 2.953 2.953q0.281 0.281 0.281 0.683z" fill="#000000" />
</svg>
