<?xml version="1.0" encoding="utf-8"?>
<!-- Generated by IcoMoon.io -->
<!DOCTYPE svg PUBLIC "-//W3C//DTD SVG 1.1//EN" "http://www.w3.org/Graphics/SVG/1.1/DTD/svg11.dtd">
<svg version="1.1" xmlns="http://www.w3.org/2000/svg" xmlns:xlink="http://www.w3.org/1999/xlink" width="16" height="16" viewBox="0 0 16 16">
<g>
</g>
  <path d="M11.67 8.196l0.205-1.955h-1.768v-0.973q0-0.438 0.138-0.612t0.638-0.174h0.982v-1.955h-1.563q-1.357 0-1.946 0.643t-0.589 1.902v1.17h-1.17v1.955h1.17v5.67h2.339v-5.67h1.563zM13.714 3.714v8.571q0 1.063-0.754 1.817t-1.817 0.754h-8.571q-1.063 0-1.817-0.754t-0.754-1.817v-8.571q0-1.063 0.754-1.817t1.817-0.754h8.571q1.063 0 1.817 0.754t0.754 1.817z" fill="#4C66A4" />
</svg>
