<?xml version="1.0" encoding="utf-8"?>
<!-- Generated by IcoMoon.io -->
<!DOCTYPE svg PUBLIC "-//W3C//DTD SVG 1.1//EN" "http://www.w3.org/Graphics/SVG/1.1/DTD/svg11.dtd">
<svg version="1.1" xmlns="http://www.w3.org/2000/svg" xmlns:xlink="http://www.w3.org/1999/xlink" width="16" height="16" viewBox="0 0 16 16">
<g id="icomoon-ignore">
</g>
<path d="M0 15.143v-14.286q0-0.357 0.25-0.607t0.607-0.25h8q0.357 0 0.786 0.179t0.679 0.429l2.786 2.786q0.25 0.25 0.429 0.679t0.179 0.786v10.286q0 0.357-0.25 0.607t-0.607 0.25h-12q-0.357 0-0.607-0.25t-0.25-0.607zM1.143 14.857h11.429v-9.143h-3.714q-0.357 0-0.607-0.25t-0.25-0.607v-3.714h-6.857v13.714zM3.429 12.286v-0.571q0-0.125 0.080-0.205t0.205-0.080h6.286q0.125 0 0.205 0.080t0.080 0.205v0.571q0 0.125-0.080 0.205t-0.205 0.080h-6.286q-0.125 0-0.205-0.080t-0.080-0.205zM3.429 10v-0.571q0-0.125 0.080-0.205t0.205-0.080h6.286q0.125 0 0.205 0.080t0.080 0.205v0.571q0 0.125-0.080 0.205t-0.205 0.080h-6.286q-0.125 0-0.205-0.080t-0.080-0.205zM3.429 7.714v-0.571q0-0.125 0.080-0.205t0.205-0.080h6.286q0.125 0 0.205 0.080t0.080 0.205v0.571q0 0.125-0.080 0.205t-0.205 0.080h-6.286q-0.125 0-0.205-0.080t-0.080-0.205zM9.143 4.571h3.357q-0.089-0.259-0.196-0.366l-2.795-2.795q-0.107-0.107-0.366-0.196v3.357z" fill="#000000"></path>
</svg>
