<?xml version="1.0" encoding="utf-8"?>
<!-- Generated by IcoMoon.io -->
<!DOCTYPE svg PUBLIC "-//W3C//DTD SVG 1.1//EN" "http://www.w3.org/Graphics/SVG/1.1/DTD/svg11.dtd">
<svg version="1.1" xmlns="http://www.w3.org/2000/svg" xmlns:xlink="http://www.w3.org/1999/xlink" width="16" height="16" viewBox="0 0 16 16">
<g>
</g>
  <path d="M6.054 14.223q0 0.339-0.089 0.634h-3.393q-0.848 0-1.531-0.504t-0.924-1.317q0.214-0.402 0.616-0.692t0.893-0.442 0.955-0.214 0.955-0.063q0.286 0 0.438 0.018 0.054 0.036 0.272 0.188t0.295 0.205 0.277 0.205 0.286 0.228 0.246 0.228 0.237 0.263 0.188 0.272 0.156 0.308 0.085 0.321 0.040 0.362zM3.438 11.089q-2.089 0.063-3.438 0.759v-3.866q0.92 1.054 2.438 1.054 0.286 0 0.625-0.045-0.188 0.545-0.188 0.768 0 0.598 0.563 1.33zM4.982 6.527q0 0.893-0.388 1.433t-1.254 0.54q-0.455 0-0.866-0.232t-0.696-0.603-0.5-0.835-0.317-0.929-0.103-0.884q0-0.857 0.46-1.473t1.29-0.616q0.589 0 1.063 0.366t0.75 0.929 0.42 1.161 0.143 1.143zM13.714 5.714v6.571q0 1.063-0.754 1.817t-1.817 0.754h-4.179q0.348-0.652 0.348-1.402 0-0.589-0.196-1.094t-0.496-0.83-0.643-0.634-0.643-0.531-0.496-0.487-0.196-0.531q0-0.321 0.205-0.607t0.5-0.549 0.585-0.576 0.496-0.83 0.205-1.17-0.237-1.299-0.674-1.058q-0.054-0.054-0.125-0.098t-0.112-0.067-0.089-0.085-0.094-0.152h1.205l1.205-0.571h-3.902q-1.232 0-2.183 0.344t-1.629 1.192q0-1.125 0.723-1.902t1.848-0.777h8.571q1.063 0 1.817 0.754t0.754 1.817v0.857h-2.286v-2.286h-1.143v2.286h-2.286v1.143h2.286v2.286h1.143v-2.286h2.286z" fill="#dd4b39" />
</svg>
