<?xml version="1.0" encoding="utf-8"?>
<!-- Generated by IcoMoon.io -->
<!DOCTYPE svg PUBLIC "-//W3C//DTD SVG 1.1//EN" "http://www.w3.org/Graphics/SVG/1.1/DTD/svg11.dtd">
<svg version="1.1" xmlns="http://www.w3.org/2000/svg" xmlns:xlink="http://www.w3.org/1999/xlink" width="20" height="20" viewBox="0 0 20 20">
<g>
</g>
  <path d="M17.143 15v1.429q0 0.29-0.212 0.502t-0.502 0.212h-15.714q-0.29 0-0.502-0.212t-0.212-0.502v-1.429q0-0.29 0.212-0.502t0.502-0.212h15.714q0.29 0 0.502 0.212t0.212 0.502zM17.143 9.286v1.429q0 0.29-0.212 0.502t-0.502 0.212h-15.714q-0.29 0-0.502-0.212t-0.212-0.502v-1.429q0-0.29 0.212-0.502t0.502-0.212h15.714q0.29 0 0.502 0.212t0.212 0.502zM17.143 3.571v1.429q0 0.29-0.212 0.502t-0.502 0.212h-15.714q-0.29 0-0.502-0.212t-0.212-0.502v-1.429q0-0.29 0.212-0.502t0.502-0.212h15.714q0.29 0 0.502 0.212t0.212 0.502z" fill="#000000" />
</svg>
