<?xml version="1.0" encoding="utf-8"?>
<!-- Generated by IcoMoon.io -->
<!DOCTYPE svg PUBLIC "-//W3C//DTD SVG 1.1//EN" "http://www.w3.org/Graphics/SVG/1.1/DTD/svg11.dtd">
<svg version="1.1" xmlns="http://www.w3.org/2000/svg" xmlns:xlink="http://www.w3.org/1999/xlink" width="14" height="18" viewBox="0 0 14 18">
<g id="icomoon-ignore">
</g>
<path d="M0 4.691q0-0.924 0.512-1.868 0.563-1.015 1.065-1.225 0.251-0.11 0.688-0.211t0.708-0.1q0.141 0 0.211 0.030 0.181 0.060 0.532 0.763 0.11 0.191 0.301 0.542t0.352 0.638 0.311 0.537q0.030 0.040 0.176 0.251t0.216 0.357 0.070 0.286q0 0.201-0.286 0.502t-0.623 0.552-0.623 0.532-0.286 0.462q0 0.090 0.050 0.226t0.085 0.206 0.141 0.241 0.116 0.191q0.763 1.376 1.748 2.36t2.36 1.748q0.020 0.010 0.191 0.116t0.241 0.141 0.206 0.085 0.226 0.050q0.181 0 0.462-0.286t0.532-0.623 0.552-0.623 0.502-0.286q0.141 0 0.286 0.070t0.357 0.216 0.251 0.176q0.251 0.151 0.537 0.311t0.638 0.352 0.542 0.301q0.703 0.352 0.763 0.532 0.030 0.070 0.030 0.211 0 0.271-0.1 0.708t-0.211 0.688q-0.211 0.502-1.225 1.065-0.944 0.512-1.868 0.512-0.271 0-0.527-0.035t-0.578-0.126-0.477-0.146-0.557-0.206-0.492-0.181q-0.984-0.352-1.758-0.834-1.286-0.794-2.657-2.165t-2.165-2.657q-0.482-0.773-0.834-1.758-0.030-0.090-0.181-0.492t-0.206-0.557-0.146-0.477-0.126-0.578-0.035-0.527z" fill="#000000"></path>
</svg>
